<?xml version="1.0" encoding="UTF-8"?>
<svg version="1.1" xmlns="http://www.w3.org/2000/svg" width="256" height="256">
<path d="M0 0 C84.48 0 168.96 0 256 0 C256 84.48 256 168.96 256 256 C171.52 256 87.04 256 0 256 C0 171.52 0 87.04 0 0 Z " fill="#020817" transform="translate(0,0)"/>
<path d="M0 0 C3.67767967 2.2674416 4.54773555 3.4168089 5.68359375 7.6484375 C6.22453514 13.12209623 6.13354941 18.05232147 2.66796875 22.5703125 C-1.12785197 25.45070488 -4.11842787 26.83275683 -8.875 27.25 C-10.009375 26.816875 -11.14375 26.38375 -12.3125 25.9375 C-13.11429688 25.65132812 -13.91609375 25.36515625 -14.7421875 25.0703125 C-17.70172539 23.65969164 -19.3013735 22.54629316 -21.3125 19.9375 C-22.7817253 14.24050395 -22.84237653 9.62654658 -21.3125 3.9375 C-14.79354941 -3.49697156 -8.5472822 -3.93808113 0 0 Z " fill="#08B0C0" transform="translate(185.3125,52.0625)"/>
<path d="M0 0 C0 0.99 0 1.98 0 3 C-1.61102866 4.13444486 -3.26491416 5.20844584 -4.9375 6.25 C-8.55794935 8.96407817 -9.86204292 10.06853794 -10.53515625 14.61328125 C-10.52355469 15.91652344 -10.51195313 17.21976563 -10.5 18.5625 C-10.47286464 25.35990707 -10.47286464 25.35990707 -13.078125 28.5234375 C-17.30796784 31.55358807 -20.67811245 33.68910556 -26 33 C-30.10886718 31.4044399 -33.13900725 29.36273401 -36 26 C-37.54345094 21.00717005 -37.58582682 16.98486004 -36 12 C-32.80983956 8.55656668 -29.46262463 6.45140693 -25 5 C-21.76240596 5.28539485 -20.19645593 5.87541819 -17.4375 7.625 C-15.20327057 9.18890356 -15.20327057 9.18890356 -13.20703125 8.83984375 C-10.15744992 7.6793836 -7.85570943 5.89178207 -5.25 3.9375 C-4.26515625 3.20402344 -3.2803125 2.47054687 -2.265625 1.71484375 C-1.51796875 1.14894531 -0.7703125 0.58304688 0 0 Z " fill="#562BE0" transform="translate(135,135)"/>
<path d="M0 0 C3.81329078 1.31555501 6.51391294 2.77610645 9 6 C9.44015972 9.61949521 9.49265961 12.8232777 9.19458008 16.43774414 C9.04229246 18.28670265 9.01247877 20.14482255 9 22 C9.99 22.66 10.98 23.32 12 24 C12 24.66 12 25.32 12 26 C11.401875 25.690625 10.80375 25.38125 10.1875 25.0625 C7.91043228 23.89790296 7.91043228 23.89790296 5 23 C3.24675248 24.02007128 1.49367737 25.04680554 -0.18359375 26.1875 C-2.59543061 27.26634316 -3.53690022 26.89110289 -6 26 C-7.27617188 25.54560547 -7.27617188 25.54560547 -8.578125 25.08203125 C-11.588337 23.65174046 -13.68167825 22.41225007 -16 20 C-17.4406298 15.07152963 -17.40726712 10.93419383 -16 6 C-13.37725733 3.06564434 -10.59577556 1.52528386 -7 0 C-4.26986696 -1.36506652 -2.92424956 -0.75560901 0 0 Z " fill="#CA14C7" transform="translate(105,70)"/>
<path d="M0 0 C0.66 0 1.32 0 2 0 C1.690625 0.886875 1.38125 1.77375 1.0625 2.6875 C-0.40156423 7.25193555 -1.13705789 11.202974 -1 16 C-2.65 16.33 -4.3 16.66 -6 17 C-6.268125 17.845625 -6.53625 18.69125 -6.8125 19.5625 C-8.0478595 23.13854067 -9.476988 26.53860908 -11 30 C-9.35 30.66 -7.7 31.32 -6 32 C-5.46535424 36.44878077 -5.22856985 40.57083645 -6 45 C-8.52149137 48.14225069 -11.22236643 49.67658561 -15 51 C-18.125 51.1875 -18.125 51.1875 -21 50 C-21.63421875 49.75378906 -22.2684375 49.50757813 -22.921875 49.25390625 C-25.24306538 48.0608144 -26.46363838 47.12493959 -28 45 C-29.20797347 40.41208106 -29.30465074 36.57199973 -28 32 C-25.10230362 28.9116657 -22.06956574 27.15254855 -18 26 C-15.16796875 26.3671875 -15.16796875 26.3671875 -13 27 C-10.69800135 22.9741791 -8.8481217 19.49848101 -8.5625 14.8125 C-7.87434248 10.14832128 -6.42104527 9.09523143 -3 6 C-1.20679176 2.83354526 -1.20679176 2.83354526 0 0 Z " fill="#C916C9" transform="translate(166,87)"/>
<path d="M0 0 C0.845625 0.763125 1.69125 1.52625 2.5625 2.3125 C2.5625 4.2925 2.5625 6.2725 2.5625 8.3125 C10.8125 8.3125 19.0625 8.3125 27.5625 8.3125 C27.5625 7.6525 27.5625 6.9925 27.5625 6.3125 C28.8825 6.3125 30.2025 6.3125 31.5625 6.3125 C31.5625 6.9725 31.5625 7.6325 31.5625 8.3125 C36.5125 8.3125 41.4625 8.3125 46.5625 8.3125 C46.5625 8.9725 46.5625 9.6325 46.5625 10.3125 C31.82133826 11.45454471 17.31835837 11.109479 2.5625 10.3125 C2.59947998 11.09963379 2.63645996 11.88676758 2.67456055 12.69775391 C2.5625 15.3125 2.5625 15.3125 0.76953125 17.1484375 C-0.02066406 17.65632813 -0.81085938 18.16421875 -1.625 18.6875 C-2.40230469 19.21085937 -3.17960937 19.73421875 -3.98046875 20.2734375 C-7.00580759 21.55283357 -8.3467033 21.31799957 -11.4375 20.3125 C-13.88717679 19.13267501 -16.10838852 17.72823443 -18.4375 16.3125 C-19.64257041 3.94379124 -19.64257041 3.94379124 -16.90234375 0.234375 C-10.98805357 -3.73127622 -6.26620696 -3.07613796 0 0 Z " fill="#0BB2BF" transform="translate(82.4375,116.6875)"/>
<path d="M0 0 C4.9813013 1.42007556 9.16870024 2.7484248 12.64453125 6.75390625 C13.91787279 11.96978853 13.20857575 17.47695663 12.64453125 22.75390625 C12.31453125 22.75390625 11.98453125 22.75390625 11.64453125 22.75390625 C11.35578125 21.80515625 11.06703125 20.85640625 10.76953125 19.87890625 C9.87628016 16.70179047 9.87628016 16.70179047 7.64453125 14.75390625 C7.58265625 15.35203125 7.52078125 15.95015625 7.45703125 16.56640625 C6.64453125 18.75390625 6.64453125 18.75390625 4.39453125 20.56640625 C1.18470489 21.95246763 -0.0895617 21.87119024 -3.35546875 20.75390625 C-4.34546875 20.09390625 -5.33546875 19.43390625 -6.35546875 18.75390625 C-7.00757938 13.7000489 -7.00757938 13.7000489 -6.35546875 10.75390625 C-3.85546875 8.25390625 -3.85546875 8.25390625 -1.35546875 6.75390625 C-2.34546875 6.07328125 -2.34546875 6.07328125 -3.35546875 5.37890625 C-4.01546875 4.84265625 -4.67546875 4.30640625 -5.35546875 3.75390625 C-5.35546875 3.09390625 -5.35546875 2.43390625 -5.35546875 1.75390625 C-2.35546875 -0.24609375 -2.35546875 -0.24609375 0 0 Z " fill="#15CDCD" transform="translate(177.35546875,49.24609375)"/>
<path d="M0 0 C10.29411765 0 10.29411765 0 15 4 C16.42662219 6.85324437 16.31033868 8.83454549 16 12 C14.20006226 14.69990662 12.916227 16.5418865 10 18 C8.29297265 18.06996014 6.58331997 18.08440154 4.875 18.0625 C3.26625 18.041875 1.6575 18.02125 0 18 C0 12.06 0 6.12 0 0 Z " fill="#C4C5C7" transform="translate(139,184)"/>
<path d="M0 0 C8.3984375 -0.1953125 8.3984375 -0.1953125 11 0 C13 2 13 2 13.0625 4.75 C13.041875 5.8225 13.02125 6.895 13 8 C13.3403125 9.5778125 13.3403125 9.5778125 13.6875 11.1875 C14 14 14 14 12.875 15.6640625 C9.1849393 18.29323075 4.33863838 17.15312841 0 17 C0 11.39 0 5.78 0 0 Z " fill="#ECECEC" transform="translate(70,185)"/>
<path d="M0 0 C0.639375 0.309375 1.27875 0.61875 1.9375 0.9375 C2.845 1.2675 3.7525 1.5975 4.6875 1.9375 C7.32375465 4.28083747 7.39558912 4.96740915 7.625 8.375 C7.41257784 12.20484656 7.14782759 12.73206374 4.25 15.5625 C0.67813673 17.04516022 -0.50345968 17.24872538 -4.0625 15.9375 C-5.40066387 15.28058319 -6.73481578 14.61534722 -8.0625 13.9375 C-8.41292116 10.53711694 -8.582104 7.32553018 -8.0625 3.9375 C-5.40800214 1.34333164 -3.80277608 -0.11523564 0 0 Z " fill="#562ADC" transform="translate(127.0625,96.0625)"/>
<path d="M0 0 C0.78375 0.04125 1.5675 0.0825 2.375 0.125 C3.035 1.445 3.695 2.765 4.375 4.125 C14.605 4.125 24.835 4.125 35.375 4.125 C35.375 3.465 35.375 2.805 35.375 2.125 C36.695 2.125 38.015 2.125 39.375 2.125 C39.375 2.785 39.375 3.445 39.375 4.125 C44.325 4.125 49.275 4.125 54.375 4.125 C54.375 4.785 54.375 5.445 54.375 6.125 C37.67224329 7.50803081 21.09212496 6.83244191 4.375 6.125 C4.045 7.115 3.715 8.105 3.375 9.125 C1.125 9.875 1.125 9.875 -1.625 10.125 C-4 8.4375 -4 8.4375 -5.625 6.125 C-5.39901657 2.28328162 -4.00216077 0.19057908 0 0 Z " fill="#F0F9FA" transform="translate(74.625,120.875)"/>
<path d="M0 0 C0.66 0 1.32 0 2 0 C1.690625 0.886875 1.38125 1.77375 1.0625 2.6875 C-0.40156423 7.25193555 -1.13705789 11.202974 -1 16 C-2.65 16.33 -4.3 16.66 -6 17 C-6.226875 17.78375 -6.45375 18.5675 -6.6875 19.375 C-7.8116903 22.47990655 -9.09431724 25.00727103 -10.6875 27.875 C-13.27585012 32.85606914 -13.0624359 35.59123542 -12 41 C-14 43 -14 43 -17 43.25 C-20 43 -20 43 -22 41 C-22.25 38.5 -22.25 38.5 -22 36 C-20 34 -20 34 -17.375 33.875 C-16.59125 33.91625 -15.8075 33.9575 -15 34 C-14.81824219 33.41992188 -14.63648438 32.83984375 -14.44921875 32.2421875 C-13.28832922 28.63450005 -12.15651868 25.2949775 -10.375 21.9375 C-9.09735987 19.20799609 -8.81984187 17.838479 -8.625 14.9375 C-7.87274312 10.19828165 -6.47839485 9.14711915 -3 6 C-1.20679176 2.83354526 -1.20679176 2.83354526 0 0 Z " fill="#D4D2D7" transform="translate(166,87)"/>
<path d="M0 0 C3.4375 1 3.4375 1 5.4375 2.6875 C6.81444267 5.87167993 6.417724 7.70924801 5.4375 11 C4.25 12.875 4.25 12.875 2.4375 14 C-1.19281776 14.54068562 -2.88464079 14.46379841 -5.9375 12.375 C-8.04956506 9.28813568 -8.17445145 7.6717087 -7.5625 4 C-5.27647022 0.43379354 -4.27192374 0 0 0 Z " fill="#DADBDC" transform="translate(101.5625,188)"/>
<path d="M0 0 C2.29296875 0.06640625 2.29296875 0.06640625 5 1 C6.3832764 3.37347426 7.36010895 5.40197872 8.3125 7.9375 C8.57611328 8.58396484 8.83972656 9.23042969 9.11132812 9.89648438 C11 14.62061688 11 14.62061688 11 17 C9.68 17 8.36 17 7 17 C6.67 16.01 6.34 15.02 6 14 C3.36 13.67 0.72 13.34 -2 13 C-2.33 14.32 -2.66 15.64 -3 17 C-3.99 17 -4.98 17 -6 17 C-5.34496718 12.94180817 -4.05440879 9.46028718 -2.4375 5.6875 C-1.75494141 4.08455078 -1.75494141 4.08455078 -1.05859375 2.44921875 C-0.53458984 1.23685547 -0.53458984 1.23685547 0 0 Z " fill="#E6E6E7" transform="translate(162,185)"/>
<path d="M0 0 C0 0.99 0 1.98 0 3 C-1.52880859 4.42285156 -1.52880859 4.42285156 -3.6484375 5.890625 C-4.78539062 6.70853516 -4.78539062 6.70853516 -5.9453125 7.54296875 C-7.55253809 8.672161 -9.16447185 9.79468431 -10.78125 10.91015625 C-15.89356247 14.61008409 -17.86143415 16.77584002 -19 23 C-21 25 -21 25 -23.4375 25.375 C-26 25 -26 25 -27.875 23.375 C-29.37436896 20.20966552 -28.88764916 18.32868435 -28 15 C-27.67 14.67 -27.34 14.34 -27 14 C-25.865625 14.12375 -24.73125 14.2475 -23.5625 14.375 C-17.46980292 14.45115871 -13.56630846 10.63340673 -9 7 C-8.12988281 6.33226562 -7.25976562 5.66453125 -6.36328125 4.9765625 C-4.22835957 3.33431505 -2.10867064 1.67573102 0 0 Z " fill="#F3F1FA" transform="translate(135,135)"/>
<path d="M0 0 C0.66 0.99 1.32 1.98 2 3 C-0.20872638 3 -2.41877359 2.9800584 -4.625 2.875 C-7.19046912 2.74449264 -7.19046912 2.74449264 -9 5 C-9.25003964 8.54178598 -9.25003964 8.54178598 -9 12 C-8.01732141 13.20561184 -8.01732141 13.20561184 -6.15234375 13.09765625 C-4.1015625 13.06510417 -2.05078125 13.03255208 0 13 C0 12.01 0 11.02 0 10 C-1.65 10 -3.3 10 -5 10 C-5 9.01 -5 8.02 -5 7 C-2.36 7 0.28 7 3 7 C3.31785906 10.49644963 3.39644605 12.397402 1.4375 15.375 C-1.97455929 17.64970619 -3.97611774 17.63534983 -8 17 C-10.93052231 15.00475077 -12.64521503 13.57163515 -13.4453125 10.02734375 C-13.64529931 6.46091226 -13.30896766 4.40165795 -11.125 1.5625 C-7.09936036 -1.39752915 -4.89082916 -1.04803482 0 0 Z " fill="#E4E5E6" transform="translate(187,185)"/>
<path d="M0 0 C1.75 1.0625 1.75 1.0625 3 3 C3.04125 4.0725 3.0825 5.145 3.125 6.25 C4.30938687 11.32594371 6.88534034 12.66910098 11.06640625 15.51953125 C11.70449219 16.00808594 12.34257813 16.49664062 13 17 C13 17.66 13 18.32 13 19 C10.21605334 17.82217641 8.60298445 16.62188996 6.375 14.5 C2.50251465 11.11656563 -2.03760411 10.65707614 -7 10 C-8.33359073 3.57451737 -8.33359073 3.57451737 -6.875 1.0625 C-4.36352369 -0.36066991 -2.84496772 -0.42674516 0 0 Z " fill="#FAF2FA" transform="translate(104,77)"/>
<path d="M0 0 C0.33 0.99 0.66 1.98 1 3 C-0.03125 4.5078125 -0.03125 4.5078125 -1.5 6.125 C-3.82583705 9.1530981 -4.32788762 10.94526982 -3.9375 14.75 C-3.44010502 17.94674076 -2.8664959 19.20025615 -1 22 C-1 22.99 -1 23.98 -1 25 C4.94 25 10.88 25 17 25 C17.33 24.01 17.66 23.02 18 22 C23.75 21.875 23.75 21.875 26 23 C26 23.66 26 24.32 26 25 C26.66 25.33 27.32 25.66 28 26 C26.68 26 25.36 26 24 26 C24 25.34 24 24.68 24 24 C22.68 24 21.36 24 20 24 C20 24.66 20 25.32 20 26 C11.75 26 3.5 26 -5 26 C-5.33 24.02 -5.66 22.04 -6 20 C-6.66 19.34 -7.32 18.68 -8 18 C-7.34 18 -6.68 18 -6 18 C-6 17.01 -6 16.02 -6 15 C-6.99 14.67 -7.98 14.34 -9 14 C-6.28316728 9.06945173 -3.33342102 4.53715638 0 0 Z " fill="#031B27" transform="translate(90,99)"/>
<path d="M0 0 C0 0.99 0 1.98 0 3 C0.99 3 1.98 3 3 3 C3 4.98 3 6.96 3 9 C2.01 9 1.02 9 0 9 C0 9.99 0 10.98 0 12 C-2.75568295 13.12268565 -3.88531535 13.03909704 -6.75 12.0625 C-9.26473149 9.75732947 -9.42120287 9.25476005 -9.625 6 C-9.42120287 2.74523995 -9.26473149 2.24267053 -6.75 -0.0625 C-3.88531535 -1.03909704 -2.75568295 -1.12268565 0 0 Z " fill="#92DBDF" transform="translate(180,58)"/>
<path d="M0 0 C4.875 0.875 4.875 0.875 6 2 C6.15154969 4.1420966 6.22177745 6.29023462 6.25 8.4375 C6.28867188 10.19900391 6.28867188 10.19900391 6.328125 11.99609375 C6.21984375 12.98738281 6.1115625 13.97867188 6 15 C3 17 3 17 0.8125 16.625 C-0.0846875 16.315625 -0.0846875 16.315625 -1 16 C-1.5625 14.0625 -1.5625 14.0625 -2 12 C-1.67 11.67 -1.34 11.34 -1 11 C-0.8386942 7.93518979 -1.01849759 5.94450722 -2 3 C-1.34 2.01 -0.68 1.02 0 0 Z " fill="#DB21C6" transform="translate(154,117)"/>
<path d="M0 0 C0.99 0 1.98 0 3 0 C3.33 2.64 3.66 5.28 4 8 C4.4125 7.484375 4.825 6.96875 5.25 6.4375 C5.8275 5.963125 6.405 5.48875 7 5 C9.1875 5.3125 9.1875 5.3125 11 6 C10.01 6.99 9.02 7.98 8 9 C8.309375 9.7425 8.61875 10.485 8.9375 11.25 C9.8094925 13.50692176 10.47667007 15.6450153 11 18 C7.20411134 17.45773019 5.52788007 15.79872437 3 13 C3 14.65 3 16.3 3 18 C2.01 18 1.02 18 0 18 C0 12.06 0 6.12 0 0 Z " fill="#ECECED" transform="translate(125,184)"/>
<path d="M0 0 C7.85208461 2.85530349 7.85208461 2.85530349 10.75 6 C11.43685135 9.42901363 11.23212903 12.55143821 10.75 16 C9.8528125 14.8553125 9.8528125 14.8553125 8.9375 13.6875 C8.215625 12.800625 7.49375 11.91375 6.75 11 C6.1003125 10.13375 6.1003125 10.13375 5.4375 9.25 C3.62491386 7.69349474 3.62491386 7.69349474 0.25 7.5625 C-3.25 7 -3.25 7 -5.1875 4.9375 C-5.7134375 3.9784375 -5.7134375 3.9784375 -6.25 3 C-4.12480712 1.03222881 -2.95210422 0 0 0 Z " fill="#E82AD1" transform="translate(102.25,69)"/>
<path d="M0 0 C6 0 6 0 7.875 1.0625 C9.61973477 4.06732099 9.30835443 6.60810131 9 10 C7 12 7 12 3.375 12.125 C2.26125 12.08375 1.1475 12.0425 0 12 C0 8.04 0 4.08 0 0 Z " fill="#191D28" transform="translate(142,187)"/>
<path d="M0 0 C1.70540619 1.61496798 3.13132968 3.32066015 4.5703125 5.17578125 C5.94218771 6.92623404 7.39861586 8.46020755 9 10 C5.96963773 9.5670911 4.04997985 9.03169454 1.4375 7.375 C-0.80616141 5.83083784 -0.80616141 5.83083784 -2.875 6.0625 C-4.89379936 6.95314678 -6.67423543 7.98887435 -8.5625 9.125 C-9.696875 9.74375 -10.83125 10.3625 -12 11 C-12.99 10.67 -13.98 10.34 -15 10 C-5.6710311 -1.3502455 -5.6710311 -1.3502455 0 0 Z " fill="#0F0A40" transform="translate(114,135)"/>
<path d="M0 0 C-2.90271361 1.59124662 -5.51997963 2.44614993 -8.765625 3.0703125 C-9.65507812 3.24433594 -10.54453125 3.41835937 -11.4609375 3.59765625 C-12.38132813 3.77167969 -13.30171875 3.94570312 -14.25 4.125 C-15.18585938 4.30675781 -16.12171875 4.48851563 -17.0859375 4.67578125 C-19.38966885 5.12242304 -21.6943043 5.5636328 -24 6 C-24.33 6.99 -24.66 7.98 -25 9 C-25.66386719 8.98839844 -26.32773438 8.97679688 -27.01171875 8.96484375 C-33.56306787 8.88106591 -33.56306787 8.88106591 -40 10 C-40 9.34 -40 8.68 -40 8 C-39.36191406 7.80664062 -38.72382812 7.61328125 -38.06640625 7.4140625 C-37.24011719 7.15367188 -36.41382812 6.89328125 -35.5625 6.625 C-34.73878906 6.36976562 -33.91507812 6.11453125 -33.06640625 5.8515625 C-30.82201984 5.19117773 -30.82201984 5.19117773 -30 3 C-28.865625 3.0825 -27.73125 3.165 -26.5625 3.25 C-20.80739426 3.2959673 -15.46211984 1.81604786 -9.94165039 0.33496094 C-6.21370837 -0.63249953 -3.67882342 -1.14476059 0 0 Z " fill="#C5C6C8" transform="translate(161,68)"/>
<path d="M0 0 C0.99 0.66 1.98 1.32 3 2 C3.3125 4.5 3.3125 4.5 3 7 C1 9 1 9 -0.875 9.265625 C-1.57625 9.26046875 -2.2775 9.2553125 -3 9.25 C-3.70125 9.25515625 -4.4025 9.2603125 -5.125 9.265625 C-7 9 -7 9 -9 7 C-9.3125 4.5 -9.3125 4.5 -9 2 C-5.53001271 -0.31332486 -4.07490752 -0.33957563 0 0 Z " fill="#646870" transform="translate(245,239)"/>
<path d="M0 0 C0.66 0.28875 1.32 0.5775 2 0.875 C2.9075 1.205 3.815 1.535 4.75 1.875 C7 3.875 7 3.875 7.31640625 6.07421875 C7.31281623 8.36106443 7.21473152 10.59884585 7 12.875 C6.71125 12.235625 6.4225 11.59625 6.125 10.9375 C5.17176549 8.72293921 5.17176549 8.72293921 3 7.875 C2.34 9.195 1.68 10.515 1 11.875 C-0.32 11.545 -1.64 11.215 -3 10.875 C-3 8.54166667 -3 6.20833333 -3 3.875 C-4.32 3.545 -5.64 3.215 -7 2.875 C-2.62385321 -0.16399083 -2.62385321 -0.16399083 0 0 Z " fill="#603DD8" transform="translate(127,96.125)"/>
<path d="M0 0 C2.3125 2 2.3125 2 4 4 C1.69 4 -0.62 4 -3 4 C-3 5.32 -3 6.64 -3 8 C-1.35 8 0.3 8 2 8 C2 8.99 2 9.98 2 11 C-0.76250036 12.38125018 -2.94731099 12.19079306 -6 12 C-8 10 -8 10 -8.3125 6.5625 C-8 3 -8 3 -6.8125 1.0625 C-4.29445572 -0.41359492 -2.87523324 -0.49089348 0 0 Z " fill="#0D111E" transform="translate(185,187)"/>
<path d="M0 0 C1.25476971 2.50953942 0.67810745 3.37233363 0 6 C0.33 6.33 0.66 6.66 1 7 C1.1875 9.4375 1.1875 9.4375 1 12 C-1 14 -1 14 -4 14.25 C-7 14 -7 14 -9 12 C-9.25 9.5 -9.25 9.5 -9 7 C-7 5 -7 5 -4.375 4.875 C-3.59125 4.91625 -2.8075 4.9575 -2 5 C-1.34 3.35 -0.68 1.7 0 0 Z " fill="#FBF5FB" transform="translate(153,116)"/>
<path d="M0 0 C3.4306168 1.33877729 6.41446854 3.08649068 9.5625 5 C7.19957344 7.52588702 5.89787489 8.88820837 2.5625 10 C0 9.8125 0 9.8125 -2.4375 9 C-3.13687532 7.68352881 -3.80479133 6.34977849 -4.4375 5 C-6.48750871 4.19471111 -6.48750871 4.19471111 -8.4375 4 C-3.22537879 0 -3.22537879 0 0 0 Z " fill="#6241DF" transform="translate(112.4375,140)"/>
<path d="M0 0 C1.0725 0.2475 2.145 0.495 3.25 0.75 C3.25 1.74 3.25 2.73 3.25 3.75 C2.280625 3.729375 1.31125 3.70875 0.3125 3.6875 C-2.62465895 3.39381501 -2.62465895 3.39381501 -3.75 4.75 C-3.79063832 6.41617115 -3.792721 8.08388095 -3.75 9.75 C-1.44 9.75 0.87 9.75 3.25 9.75 C3.25 10.74 3.25 11.73 3.25 12.75 C2.25 13.75 2.25 13.75 -1.125 14.0625 C-4.75 13.75 -4.75 13.75 -6.6875 12.125 C-8.06565201 9.04442492 -8.23746608 7.09262452 -7.75 3.75 C-5.37104522 0.03883055 -4.45561458 -0.29704097 0 0 Z " fill="#F1F1F0" transform="translate(117.75,188.25)"/>
<path d="M0 0 C0.33 0 0.66 0 1 0 C1 3.63 1 7.26 1 11 C-0.33333333 10.33333333 -1.66666667 9.66666667 -3 9 C-3.845625 9 -4.69125 9 -5.5625 9 C-6.366875 9 -7.17125 9 -8 9 C-9 8 -9 8 -9.1875 5.5625 C-9 3 -9 3 -7 1 C-5.00041636 0.95919217 -2.99954746 0.95745644 -1 1 C-0.67 0.67 -0.34 0.34 0 0 Z " fill="#0F131F" transform="translate(122,190)"/>
<path d="M0 0 C0.66 0 1.32 0 2 0 C2.91059629 4.95769089 3.27318741 9.08913427 2 14 C-0.375 16.75 -0.375 16.75 -3 19 C-3.45375 19.5775 -3.9075 20.155 -4.375 20.75 C-7.63932145 23.2610165 -12.02317323 23 -16 23 C-16.66 21.68 -17.32 20.36 -18 19 C-16.2984375 19.433125 -16.2984375 19.433125 -14.5625 19.875 C-9.77163149 20.41397271 -6.65874222 19.08668469 -2.7890625 16.30078125 C0.82202348 11.65683007 0.19343538 5.64831305 0 0 Z " fill="#0C0839" transform="translate(124,147)"/>
<path d="M0 0 C1.32 0 2.64 0 4 0 C4 0.66 4 1.32 4 2 C8.95 2 13.9 2 19 2 C19 2.66 19 3.32 19 4 C4.25883826 5.14204471 -10.24414163 4.796979 -25 4 C-25 3.67 -25 3.34 -25 3 C-12.625 2.505 -12.625 2.505 0 2 C0 1.34 0 0.68 0 0 Z " fill="#C9CBCD" transform="translate(110,123)"/>
<path d="M0 0 C0.66 0.433125 1.32 0.86625 2 1.3125 C1.4375 4.1875 1.4375 4.1875 0 7.3125 C-3.625 8.6875 -3.625 8.6875 -7 9.3125 C-8.32 7.6625 -9.64 6.0125 -11 4.3125 C-3.9452954 -0.9041302 -3.9452954 -0.9041302 0 0 Z " fill="#DE24CD" transform="translate(151,113.6875)"/>
<path d="M0 0 C3.36591866 1.44253657 5.51047079 3.33264727 8 6 C8.33 4.02 8.66 2.04 9 0 C9.33 0 9.66 0 10 0 C10 4.62 10 9.24 10 14 C7 14 7 14 4.875 12.9375 C2.21995103 10.1939494 2.39232147 7.72705396 2 4 C1.04415562 1.66411677 1.04415562 1.66411677 0 0 Z " fill="#D422C2" transform="translate(104,76)"/>
<path d="M0 0 C1.65 0.33 3.3 0.66 5 1 C5.66 3.31 6.32 5.62 7 8 C6.34 8 5.68 8 5 8 C5 8.99 5 9.98 5 11 C3.02 11 1.04 11 -1 11 C-2.23076923 4.6 -2.23076923 4.6 -1.0625 1.5625 C-0.711875 1.046875 -0.36125 0.53125 0 0 Z " fill="#E5E5E6" transform="translate(162,185)"/>
<path d="M0 0 C1.588125 -0.061875 3.17625 -0.12375 4.8125 -0.1875 C6.15248047 -0.23970703 6.15248047 -0.23970703 7.51953125 -0.29296875 C10.41647515 0.04918998 11.22555028 0.75393573 13 3 C12.01 3.66 11.02 4.32 10 5 C9.34 4.34 8.68 3.68 8 3 C6.01178687 2.60235737 4.01055661 2.26224651 2 2 C2 5.96 2 9.92 2 14 C3.98 14 5.96 14 8 14 C7.67 14.66 7.34 15.32 7 16 C4.69 16 2.38 16 0 16 C0 10.72 0 5.44 0 0 Z " fill="#F7F7F7" transform="translate(140,185)"/>
<path d="M0 0 C2.92863264 0.86605479 4.84072131 2.49438041 7.0078125 4.59375 C6.3478125 8.22375 5.6878125 11.85375 5.0078125 15.59375 C4.6778125 15.59375 4.3478125 15.59375 4.0078125 15.59375 C3.99363281 14.97886719 3.97945312 14.36398438 3.96484375 13.73046875 C3.77431524 8.48033639 3.77431524 8.48033639 0.6953125 4.46875 C-2.1944009 3.52791308 -3.22461697 3.48672179 -5.9921875 4.59375 C-6.9821875 4.92375 -7.9721875 5.25375 -8.9921875 5.59375 C-8.9921875 2.59375 -8.9921875 2.59375 -7.9921875 0.84375 C-5.27375658 -0.85526933 -3.08786904 -0.50135143 0 0 Z " fill="#09092E" transform="translate(129.9921875,93.40625)"/>
<path d="M0 0 C2 1.0625 2 1.0625 4 3 C4.46268457 6.63537875 4.40708036 9.06610977 2.9375 12.4375 C0.04961448 14.76643994 -2.41576962 14.27050795 -6 14 C-5.67 13.01 -5.34 12.02 -5 11 C-2.9375 10.3125 -2.9375 10.3125 -1 10 C-1.020625 8.72125 -1.04125 7.4425 -1.0625 6.125 C-1.125 2.25 -1.125 2.25 0 0 Z " fill="#181C2A" transform="translate(165,93)"/>
<path d="M0 0 C0.66 0 1.32 0 2 0 C0.45170647 4.35966861 -2.93874085 6.57436236 -6.5 9.25 C-7.76606188 10.21948182 -9.0316837 11.18953858 -10.296875 12.16015625 C-10.92271484 12.63727051 -11.54855469 13.11438477 -12.19335938 13.60595703 C-15.56133953 16.20476334 -18.83006306 18.92748587 -22.109375 21.63671875 C-24 23 -24 23 -26 23 C-26 22.34 -26 21.68 -26 21 C-23.9315063 19.23347619 -21.85373224 17.57664462 -19.6875 15.9375 C-18.4055273 14.9501564 -17.12428709 13.96186106 -15.84375 12.97265625 C-15.19921875 12.47652832 -14.5546875 11.98040039 -13.890625 11.46923828 C-6.6991934 6.01237041 -6.6991934 6.01237041 0 0 Z " fill="#D4D6D8" transform="translate(161,74)"/>
<path d="M0 0 C0.99 0 1.98 0 3 0 C3 4.95 3 9.9 3 15 C3.66 15 4.32 15 5 15 C5 15.99 5 16.98 5 18 C3.35 17.67 1.7 17.34 0 17 C0 11.39 0 5.78 0 0 Z " fill="#EEEEEE" transform="translate(87,184)"/>
<path d="M0 0 C2.25 1.5 2.25 1.5 3.0625 4.125 C3.124375 4.90875 3.18625 5.6925 3.25 6.5 C2.59 6.5 1.93 6.5 1.25 6.5 C1.25 5.84 1.25 5.18 1.25 4.5 C-2.64459074 4.28918149 -2.64459074 4.28918149 -5.75 5.5 C-8.75 6.5 -8.75 6.5 -12.75 6.5 C-13.08 4.85 -13.41 3.2 -13.75 1.5 C-12.863125 1.726875 -11.97625 1.95375 -11.0625 2.1875 C-7.72545381 2.83567653 -7.72545381 2.83567653 -5.1875 0.9375 C-2.75 -0.5 -2.75 -0.5 0 0 Z " fill="#0D0B34" transform="translate(135.75,109.5)"/>
<path d="M0 0 C1.65 0.33 3.3 0.66 5 1 C5 4.96 5 8.92 5 13 C4.01 13.495 4.01 13.495 3 14 C0.02559607 9.45091164 0.02559607 9.45091164 -1 7 C-0.32681681 4.67445808 0.32487043 3.67512957 2 2 C1.34 1.34 0.68 0.68 0 0 Z " fill="#111521" transform="translate(133,188)"/>
<path d="M0 0 C0 4.95 0 9.9 0 15 C-1.98 15.99 -1.98 15.99 -4 17 C-3.67 16.34 -3.34 15.68 -3 15 C-2.93003986 13.29297265 -2.91559846 11.58331997 -2.9375 9.875 C-2.94652344 8.96492187 -2.95554687 8.05484375 -2.96484375 7.1171875 C-2.97644531 6.41851562 -2.98804687 5.71984375 -3 5 C-3.99 5.33 -4.98 5.66 -6 6 C-5.67 7.98 -5.34 9.96 -5 12 C-6.32 12.33 -7.64 12.66 -9 13 C-5.58333333 0 -5.58333333 0 0 0 Z " fill="#6344D0" transform="translate(124,146)"/>
<path d="M0 0 C0.33 1.32 0.66 2.64 1 4 C7.93 4 14.86 4 22 4 C22.33 3.01 22.66 2.02 23 1 C28.75 0.875 28.75 0.875 31 2 C31 2.66 31 3.32 31 4 C31.66 4.33 32.32 4.66 33 5 C31.68 5 30.36 5 29 5 C29 4.34 29 3.68 29 3 C27.68 3 26.36 3 25 3 C25 3.66 25 4.32 25 5 C16.75 5 8.5 5 0 5 C0 3.35 0 1.7 0 0 Z " fill="#36414D" transform="translate(85,120)"/>
<path d="M0 0 C2.64 0 5.28 0 8 0 C8.33663062 3.70293685 8.47736015 5.39534381 6.125 8.375 C4 10 4 10 2 10 C2 9.34 2 8.68 2 8 C1.01 7.67 0.02 7.34 -1 7 C0.98 6.67 2.96 6.34 5 6 C5 5.01 5 4.02 5 3 C3.35 3 1.7 3 0 3 C0 2.01 0 1.02 0 0 Z " fill="#D6D6D8" transform="translate(182,192)"/>
<path d="M0 0 C2.625 0.375 2.625 0.375 5 1 C5.04254356 2.99954746 5.04080783 5.00041636 5 7 C4 8 4 8 1.4375 8.0625 C0.633125 8.041875 -0.17125 8.02125 -1 8 C-1.625 5.125 -1.625 5.125 -2 2 C-1.34 1.34 -0.68 0.68 0 0 Z " fill="#121520" transform="translate(99,191)"/>
<path d="M0 0 C0.33 0.33 0.66 0.66 1 1 C1.66 0.67 2.32 0.34 3 0 C3.99 0.99 4.98 1.98 6 3 C4 4 4 4 0.75 4.375 C-3.03723985 5.00620664 -5.67283117 6.13353944 -9 8 C-9 6.68 -9 5.36 -9 4 C-4 0 -4 0 0 0 Z " fill="#03242F" transform="translate(73,111)"/>
<path d="M0 0 C1.60875 0.2784375 1.60875 0.2784375 3.25 0.5625 C6.40391546 0.9304568 8.09818492 1.04465343 11 0 C11 1.98 11 3.96 11 6 C9.39125 5.7215625 9.39125 5.7215625 7.75 5.4375 C4.59608454 5.0695432 2.90181508 4.95534657 0 6 C0 4.02 0 2.04 0 0 Z " fill="#F0FAFA" transform="translate(172,61)"/>
<path d="M0 0 C0 3.3 0 6.6 0 10 C-1.65 10.66 -3.3 11.32 -5 12 C-4.814375 11.0925 -4.62875 10.185 -4.4375 9.25 C-4.04265379 6.31685676 -4.05308428 4.7355343 -5 2 C-2 0 -2 0 0 0 Z " fill="#090D18" transform="translate(87,189)"/>
<path d="M0 0 C2.125 0.375 2.125 0.375 4 1 C3.67 1.66 3.34 2.32 3 3 C2.34 3 1.68 3 1 3 C1 7.62 1 12.24 1 17 C0.01 16.67 -0.98 16.34 -2 16 C-2.05384521 13.70858714 -2.09272087 11.41681812 -2.125 9.125 C-2.14820312 7.84882812 -2.17140625 6.57265625 -2.1953125 5.2578125 C-2 2 -2 2 0 0 Z " fill="#BB1DB9" transform="translate(91,74)"/>
<path d="M0 0 C0.66 0.99 1.32 1.98 2 3 C1.11248047 3.14695313 1.11248047 3.14695313 0.20703125 3.296875 C-4.84834148 4.25351976 -8.24766735 5.24766735 -12 9 C-12.33 9.66 -12.66 10.32 -13 11 C-13.66 10.67 -14.32 10.34 -15 10 C-6.00191449 -0.94767071 -6.00191449 -0.94767071 0 0 Z " fill="#080730" transform="translate(114,135)"/>
<path d="M0 0 C0.99 0.33 1.98 0.66 3 1 C3.32712342 7.13053511 3.39366878 11.62669111 0 17 C-0.66 16.67 -1.32 16.34 -2 16 C-1.67 15.67 -1.34 15.34 -1 15 C-0.76346477 12.47403741 -0.57826308 9.96892793 -0.4375 7.4375 C-0.39431641 6.72658203 -0.35113281 6.01566406 -0.30664062 5.28320312 C-0.20028223 3.52238088 -0.09961154 1.7612168 0 0 Z " fill="#063540" transform="translate(190,57)"/>
<path d="M0 0 C2.31 0 4.62 0 7 0 C7.5625 1.9375 7.5625 1.9375 8 4 C7 5 7 5 3.4375 5.0625 C2.303125 5.041875 1.16875 5.02125 0 5 C0 3.35 0 1.7 0 0 Z " fill="#0B101E" transform="translate(73,194)"/>
<path d="M0 0 C0.2475 0.5775 0.495 1.155 0.75 1.75 C2.82554091 5.48597363 4.93173944 7.64391315 9 9 C9 9.66 9 10.32 9 11 C2.56985294 10.51470588 2.56985294 10.51470588 0.0625 8.25 C-1.17893286 5.62108336 -1.31080287 3.87492653 -1 1 C-0.67 0.67 -0.34 0.34 0 0 Z " fill="#F5F5F5" transform="translate(175,191)"/>
<path d="M0 0 C0.99 0 1.98 0 3 0 C3 3.96 3 7.92 3 12 C2.34 12 1.68 12 1 12 C-1.22923777 7.67265609 -0.92470553 4.71599818 0 0 Z " fill="#073641" transform="translate(61,120)"/>
<path d="M0 0 C0.66 0 1.32 0 2 0 C1.690625 0.886875 1.38125 1.77375 1.0625 2.6875 C-0.40156423 7.25193555 -1.13705789 11.202974 -1 16 C-2.65 16.33 -4.3 16.66 -6 17 C-5.67 16.34 -5.34 15.68 -5 15 C-4.34 15 -3.68 15 -3 15 C-3.2475 14.01 -3.495 13.02 -3.75 12 C-4.47690967 7.26054895 -2.39758531 3.9616753 0 0 Z " fill="#C5C6CA" transform="translate(166,87)"/>
<path d="M0 0 C0.5775 0.350625 1.155 0.70125 1.75 1.0625 C1.09 1.0625 0.43 1.0625 -0.25 1.0625 C-0.58 2.0525 -0.91 3.0425 -1.25 4.0625 C-2.24 4.7225 -3.23 5.3825 -4.25 6.0625 C-4.25 7.3825 -4.25 8.7025 -4.25 10.0625 C-4.91 10.0625 -5.57 10.0625 -6.25 10.0625 C-6.25 6.7625 -6.25 3.4625 -6.25 0.0625 C-2.25 -0.9375 -2.25 -0.9375 0 0 Z " fill="#5A2DE0" transform="translate(125.25,99.9375)"/>
<path d="M0 0 C3.125 0.375 3.125 0.375 6 1 C6.33 2.65 6.66 4.3 7 6 C4.1875 6.25 4.1875 6.25 1 6 C-0.875 4 -0.875 4 -2 2 C-1.34 1.34 -0.68 0.68 0 0 Z " fill="#E21BCF" transform="translate(98,70)"/>
<path d="M0 0 C0.433125 0.61875 0.86625 1.2375 1.3125 1.875 C2.99740483 4.2197245 2.99740483 4.2197245 6 6 C5.67 6.99 5.34 7.98 5 9 C2.03 8.505 2.03 8.505 -1 8 C-1.625 5.125 -1.625 5.125 -2 2 C-1.34 1.34 -0.68 0.68 0 0 Z " fill="#501DDF" transform="translate(122,103)"/>
<path d="M0 0 C0.66 0 1.32 0 2 0 C2 4.62 2 9.24 2 14 C1.01 14.495 1.01 14.495 0 15 C-0.19517554 13.06325815 -0.38087873 11.12555991 -0.5625 9.1875 C-0.66691406 8.10855469 -0.77132812 7.02960938 -0.87890625 5.91796875 C-1 3 -1 3 0 0 Z " fill="#090633" transform="translate(97,147)"/>
<path d="M0 0 C0.99 0.33 1.98 0.66 3 1 C3 2.32 3 3.64 3 5 C5.31 5 7.62 5 10 5 C10 5.66 10 6.32 10 7 C3.9453125 7.1953125 3.9453125 7.1953125 2 7 C0 5 0 5 -0.125 2.375 C-0.08375 1.59125 -0.0425 0.8075 0 0 Z " fill="#777A81" transform="translate(236,241)"/>
<path d="M0 0 C0.78375 0.04125 1.5675 0.0825 2.375 0.125 C1.4159375 0.8675 1.4159375 0.8675 0.4375 1.625 C-2.44015269 5.11306387 -2.32730736 7.65961041 -2.625 12.125 C-4.625 10.125 -4.625 10.125 -4.890625 8.25 C-4.88546875 7.54875 -4.8803125 6.8475 -4.875 6.125 C-4.88015625 5.42375 -4.8853125 4.7225 -4.890625 4 C-4.43038182 0.75122461 -3.13681296 0.14937205 0 0 Z " fill="#5C5F6B" transform="translate(160.625,93.875)"/>
<path d="M0 0 C0.33 0 0.66 0 1 0 C1.33 2.64 1.66 5.28 2 8 C2.4125 7.484375 2.825 6.96875 3.25 6.4375 C3.8275 5.963125 4.405 5.48875 5 5 C7.1875 5.3125 7.1875 5.3125 9 6 C6.75 8.5625 6.75 8.5625 4 11 C2.68 10.67 1.36 10.34 0 10 C0 6.7 0 3.4 0 0 Z " fill="#CACBCD" transform="translate(127,184)"/>
<path d="M0 0 C-0.66 1.32 -1.32 2.64 -2 4 C-2.721875 3.79375 -3.44375 3.5875 -4.1875 3.375 C-7.44641585 2.94047789 -9.08304504 3.58319331 -12 5 C-12 4.01 -12 3.02 -12 2 C-8.09971775 -0.60018816 -4.52565431 -0.15085514 0 0 Z " fill="#1F092F" transform="translate(155,111)"/>
<path d="M0 0 C-0.33 0.66 -0.66 1.32 -1 2 C-5.44500224 3.33350067 -9.3318831 4.29175731 -14 4 C-13.67 3.01 -13.34 2.02 -13 1 C-8.62426048 0.40667939 -4.42471556 -0.13827236 0 0 Z " fill="#E8E9E9" transform="translate(145,71)"/>
<path d="M0 0 C0 0.99 0 1.98 0 3 C-2.1875 5.04296875 -2.1875 5.04296875 -5 7.1875 C-5.928125 7.90292969 -6.85625 8.61835938 -7.8125 9.35546875 C-8.8953125 10.16951172 -8.8953125 10.16951172 -10 11 C-10.66 10.34 -11.32 9.68 -12 9 C-8.04 6.03 -4.08 3.06 0 0 Z " fill="#D3D3D7" transform="translate(135,135)"/>
<path d="M0 0 C2.0625 0.4375 2.0625 0.4375 4 1 C3.67 2.65 3.34 4.3 3 6 C1.68 5.67 0.36 5.34 -1 5 C-1 1 -1 1 0 0 Z " fill="#ECE7F7" transform="translate(125,102)"/>
<path d="M0 0 C0.66 0 1.32 0 2 0 C2.66 2.31 3.32 4.62 4 7 C2.02 7 0.04 7 -2 7 C-1.34 4.69 -0.68 2.38 0 0 Z " fill="#383A42" transform="translate(163,189)"/>
<path d="M0 0 C2.31 0 4.62 0 7 0 C6.67 1.32 6.34 2.64 6 4 C4.02 4 2.04 4 0 4 C0 2.68 0 1.36 0 0 Z " fill="#1F222B" transform="translate(73,188)"/>
<path d="M0 0 C2.4375 0.6875 2.4375 0.6875 5 2 C5.8125 4.625 5.8125 4.625 6 7 C5.34 7 4.68 7 4 7 C4 6.34 4 5.68 4 5 C2.68 5 1.36 5 0 5 C-0.66 4.67 -1.32 4.34 -2 4 C-1.34 2.68 -0.68 1.36 0 0 Z " fill="#3B3A53" transform="translate(133,109)"/>
<path d="M0 0 C0.33 0.99 0.66 1.98 1 3 C-0.36328125 5.48046875 -0.36328125 5.48046875 -2.3125 8.1875 C-2.94800781 9.08855469 -3.58351563 9.98960938 -4.23828125 10.91796875 C-5.11033203 11.94857422 -5.11033203 11.94857422 -6 13 C-6.66 13 -7.32 13 -8 13 C-6.53181332 9.89257577 -4.79975 7.09528261 -2.875 4.25 C-2.33617188 3.45078125 -1.79734375 2.6515625 -1.2421875 1.828125 C-0.62730469 0.92320313 -0.62730469 0.92320313 0 0 Z " fill="#D4D5D7" transform="translate(90,99)"/>
<path d="M0 0 C0.45890625 0.39832031 0.9178125 0.79664062 1.390625 1.20703125 C5.31674827 4.60015709 5.31674827 4.60015709 9.4375 7.75 C9.953125 8.1625 10.46875 8.575 11 9 C11 9.66 11 10.32 11 11 C7.09208756 9.34665243 4.21001201 6.73192511 1 4 C0.01 3.34 -0.98 2.68 -2 2 C-1.34 2 -0.68 2 0 2 C0 1.34 0 0.68 0 0 Z " fill="#E8D6E8" transform="translate(106,85)"/>
<path d="M0 0 C0.33 0 0.66 0 1 0 C1.0825 1.11375 1.165 2.2275 1.25 3.375 C1.57873787 7.05753944 1.57873787 7.05753944 4.0625 8.4375 C4.701875 8.623125 5.34125 8.80875 6 9 C4.00045254 9.04254356 1.99958364 9.04080783 0 9 C-1 8 -1 8 -1.125 4.5 C-1 1 -1 1 0 0 Z " fill="#F2F2F2" transform="translate(96,192)"/>
<path d="M0 0 C-0.99 1.485 -0.99 1.485 -2 3 C-5.625 3.1875 -5.625 3.1875 -9 3 C-8.67 2.01 -8.34 1.02 -8 0 C-4.71303767 -0.79953138 -3.28976808 -1.09658936 0 0 Z " fill="#E0E0E1" transform="translate(122,199)"/>
<path d="M0 0 C0 0.99 0 1.98 0 3 C-4.95 5.475 -4.95 5.475 -10 8 C-7.95874182 3.91748364 -7.69699058 3.47606026 -3.875 1.75 C-3.15054688 1.41484375 -2.42609375 1.0796875 -1.6796875 0.734375 C-1.12539062 0.49203125 -0.57109375 0.2496875 0 0 Z " fill="#240532" transform="translate(100,67)"/>
<path d="M0 0 C2.25 -0.25 2.25 -0.25 5 0 C7.3125 2 7.3125 2 9 4 C6.69 4 4.38 4 2 4 C2 3.34 2 2.68 2 2 C1.34 2 0.68 2 0 2 C0 1.34 0 0.68 0 0 Z " fill="#1D212B" transform="translate(180,187)"/>
<path d="M0 0 C1.32 0 2.64 0 4 0 C4 2.31 4 4.62 4 7 C2.35 5.68 0.7 4.36 -1 3 C-0.67 2.01 -0.34 1.02 0 0 Z " fill="#F526D4" transform="translate(155,119)"/>
<path d="M0 0 C2.0625 0.4375 2.0625 0.4375 4 1 C3.34 1.66 2.68 2.32 2 3 C1.53603307 5.89223503 1.53603307 5.89223503 1.375 9.125 C1.30023438 10.22070312 1.22546875 11.31640625 1.1484375 12.4453125 C1.09945312 13.28835937 1.05046875 14.13140625 1 15 C0.67 15 0.34 15 0 15 C-0.19390729 12.68802845 -0.37996367 10.3753971 -0.5625 8.0625 C-0.71912109 6.13083984 -0.71912109 6.13083984 -0.87890625 4.16015625 C-0.91886719 3.11730469 -0.95882812 2.07445313 -1 1 C-0.67 0.67 -0.34 0.34 0 0 Z " fill="#230733" transform="translate(137,116)"/>
<path d="M0 0 C2.475 0.99 2.475 0.99 5 2 C1.99382731 5.00617269 -0.82381598 4.59585316 -5 5 C-5 4.01 -5 3.02 -5 2 C-3.35 1.67 -1.7 1.34 0 1 C0 0.67 0 0.34 0 0 Z " fill="#06323C" transform="translate(74,111)"/>
<path d="M0 0 C0.99 0.33 1.98 0.66 3 1 C3.25 6.625 3.25 6.625 1 10 C-1.625 10.1875 -1.625 10.1875 -4 10 C-2.68 9.34 -1.36 8.68 0 8 C0 5.36 0 2.72 0 0 Z " fill="#515460" transform="translate(164,95)"/>
<path d="M0 0 C0.66 0 1.32 0 2 0 C1.67 1.65 1.34 3.3 1 5 C-1.31 5 -3.62 5 -6 5 C-5.67 4.01 -5.34 3.02 -5 2 C-3.68 2 -2.36 2 -1 2 C-0.67 1.34 -0.34 0.68 0 0 Z " fill="#323644" transform="translate(137,74)"/>
<path d="M0 0 C2.31 0.33 4.62 0.66 7 1 C7 1.99 7 2.98 7 4 C4.69 4 2.38 4 0 4 C0 2.68 0 1.36 0 0 Z " fill="#DEDFE0" transform="translate(114,188)"/>
<path d="M0 0 C0.598125 0.226875 1.19625 0.45375 1.8125 0.6875 C-1.06837546 3.08822955 -3.75154834 5.16041037 -7.1875 6.6875 C-3.9375 -0.5625 -3.9375 -0.5625 0 0 Z " fill="#022834" transform="translate(170.1875,50.3125)"/>
<path d="M0 0 C-0.61875 0.45375 -1.2375 0.9075 -1.875 1.375 C-4.05919833 2.97108919 -4.05919833 2.97108919 -6 5 C-6.33 5 -6.66 5 -7 5 C-7.33 6.65 -7.66 8.3 -8 10 C-8.33 10 -8.66 10 -9 10 C-9.32523926 6.42236811 -9.42956587 4.60457419 -7.3125 1.625 C-4.61209763 -0.27258004 -3.22939919 -0.35882213 0 0 Z " fill="#CECED0" transform="translate(103,188)"/>
<path d="M0 0 C0 0.99 0 1.98 0 3 C-0.99 3.33 -1.98 3.66 -3 4 C-2.67 5.98 -2.34 7.96 -2 10 C-3.32 10.33 -4.64 10.66 -6 11 C-5.57576756 9.53775201 -5.13509755 8.08026588 -4.6875 6.625 C-4.44386719 5.81289062 -4.20023437 5.00078125 -3.94921875 4.1640625 C-3 2 -3 2 0 0 Z " fill="#6641E2" transform="translate(121,148)"/>
<path d="M0 0 C3.43595166 1.52708963 6.11912454 3.59927045 9 6 C8.67 6.66 8.34 7.32 8 8 C6.66102417 7.04956626 5.32894573 6.08940853 4 5.125 C3.2575 4.59132812 2.515 4.05765625 1.75 3.5078125 C1.1725 3.01023438 0.595 2.51265625 0 2 C0 1.34 0 0.68 0 0 Z " fill="#CDCFD2" transform="translate(86,135)"/>
<path d="M0 0 C0.33 0.66 0.66 1.32 1 2 C-0.32 3.32 -1.64 4.64 -3 6 C-3.99 5.67 -4.98 5.34 -6 5 C-6 4.34 -6 3.68 -6 3 C-4.02 2.01 -2.04 1.02 0 0 Z " fill="#1D062D" transform="translate(154,135)"/>
<path d="M0 0 C2.475 0.99 2.475 0.99 5 2 C4.01 3.485 4.01 3.485 3 5 C1.68 4.67 0.36 4.34 -1 4 C-0.67 2.68 -0.34 1.36 0 0 Z " fill="#EDF9F9" transform="translate(176,66)"/>
<path d="M0 0 C1.98 0.495 1.98 0.495 4 1 C4 1.99 4 2.98 4 4 C2.68 4.33 1.36 4.66 0 5 C-0.33 4.01 -0.66 3.02 -1 2 C-0.67 1.34 -0.34 0.68 0 0 Z " fill="#ECF9F9" transform="translate(176,57)"/>
<path d="M0 0 C2.16874252 0.50603992 3.99967627 0.99983813 6 2 C6 2.66 6 3.32 6 4 C6.66 4.33 7.32 4.66 8 5 C7.01 5.495 7.01 5.495 6 6 C3.4375 4.75 3.4375 4.75 1 3 C0.67 2.01 0.34 1.02 0 0 Z " fill="#052E3A" transform="translate(178,47)"/>
<path d="M0 0 C0.33 0 0.66 0 1 0 C1.66 2.97 2.32 5.94 3 9 C2.01 9.495 2.01 9.495 1 10 C0.01 9.01 -0.98 8.02 -2 7 C-1.34 4.69 -0.68 2.38 0 0 Z " fill="#272A35" transform="translate(173,191)"/>
<path d="M0 0 C2.31 0 4.62 0 7 0 C7.33 1.32 7.66 2.64 8 4 C7.34 4 6.68 4 6 4 C6 3.34 6 2.68 6 2 C4.02 2 2.04 2 0 2 C0 1.34 0 0.68 0 0 Z " fill="#30313A" transform="translate(73,194)"/>
<path d="M0 0 C0.66 0.33 1.32 0.66 2 1 C1.67 3.64 1.34 6.28 1 9 C-0.5625 7.8125 -0.5625 7.8125 -2 6 C-1.57894737 1.57894737 -1.57894737 1.57894737 0 0 Z " fill="#DCDCDD" transform="translate(176,186)"/>
<path d="M0 0 C0.33 0 0.66 0 1 0 C1 1.98 1 3.96 1 6 C-0.65 6.66 -2.3 7.32 -4 8 C-2.68 5.36 -1.36 2.72 0 0 Z " fill="#0E1221" transform="translate(86,193)"/>
<path d="M0 0 C0.33 0 0.66 0 1 0 C1 1.98 1 3.96 1 6 C-0.98 6.99 -0.98 6.99 -3 8 C-1.125 1.125 -1.125 1.125 0 0 Z " fill="#FAFAFA" transform="translate(162,96)"/>
<path d="M0 0 C1.98 0 3.96 0 6 0 C6.33 0.66 6.66 1.32 7 2 C6.34 2.66 5.68 3.32 5 4 C3.02 3.34 1.04 2.68 -1 2 C-0.67 1.34 -0.34 0.68 0 0 Z " fill="#F5F6F6" transform="translate(99,189)"/>
<path d="M0 0 C2.31 0 4.62 0 7 0 C7 0.99 7 1.98 7 3 C4.69 3 2.38 3 0 3 C0 2.01 0 1.02 0 0 Z " fill="#6C6E78" transform="translate(109,127)"/>
<path d="M0 0 C1.65 0.33 3.3 0.66 5 1 C4.071875 1.4021875 4.071875 1.4021875 3.125 1.8125 C0.7004767 2.95556848 0.7004767 2.95556848 -1 6 C-1.33 5.01 -1.66 4.02 -2 3 C-1.34 2.01 -0.68 1.02 0 0 Z " fill="#DE32C8" transform="translate(154,117)"/>
</svg>
